<?xml version="1.0" standalone="no"?>
<!DOCTYPE svg PUBLIC "-//W3C//DTD SVG 20010904//EN"
 "http://www.w3.org/TR/2001/REC-SVG-20010904/DTD/svg10.dtd">
<svg version="1.0" xmlns="http://www.w3.org/2000/svg"
 width="219.000000pt" height="230.000000pt" viewBox="0 0 219.000000 230.000000"
 preserveAspectRatio="xMidYMid meet">

<g transform="translate(0.000000,230.000000) scale(0.100000,-0.100000)"
fill="#000000" stroke="none">
<path d="M1070 2245 c-16 -17 -34 -25 -57 -25 -31 0 -33 -2 -33 -33 0 -23 -8
-41 -25 -57 l-25 -24 25 -26 c16 -17 25 -38 25 -58 0 -30 3 -32 33 -32 23 0
41 -8 57 -25 l24 -25 26 25 c17 16 38 25 58 25 29 0 32 3 32 32 0 21 9 41 27
60 l27 28 -27 28 c-16 16 -27 39 -27 55 0 23 -4 27 -28 27 -17 0 -38 10 -52
25 -13 14 -26 25 -30 25 -4 0 -17 -11 -30 -25z m91 -46 c23 -19 23 -20 2 -10
-56 28 -119 -6 -129 -70 -5 -29 -1 -41 22 -68 26 -31 31 -33 75 -29 55 6 56
-6 1 -23 -64 -19 -136 25 -142 86 -5 48 2 69 34 101 41 41 99 47 137 13z m31
-104 c-4 -26 -52 -28 -52 -2 0 9 -6 17 -12 18 -7 0 -3 4 10 9 12 5 22 14 22
20 0 5 8 2 18 -7 10 -10 16 -27 14 -38z"/>
<path d="M668 2145 c-2 -2 -20 -5 -39 -7 -50 -3 -127 -46 -152 -84 -12 -19
-29 -34 -38 -34 -9 0 -36 -18 -61 -40 -25 -21 -48 -37 -50 -34 -3 2 -16 -16
-29 -41 -13 -25 -27 -45 -31 -45 -5 0 -8 -7 -8 -15 0 -21 -41 -76 -52 -69 -4
3 -11 -8 -14 -25 -4 -17 -10 -31 -15 -31 -5 0 -16 -15 -25 -32 -9 -18 -25 -41
-36 -52 -14 -13 -19 -28 -16 -47 3 -20 0 -29 -9 -29 -7 0 -13 -9 -13 -20 0
-12 -9 -33 -20 -48 -45 -63 -73 -265 -46 -342 9 -27 12 -48 6 -54 -5 -5 -6
-48 -3 -95 9 -146 97 -348 212 -488 16 -19 27 -41 25 -48 -3 -7 2 -19 10 -28
9 -9 13 -22 10 -30 -3 -9 6 -19 28 -28 38 -15 70 -49 94 -98 9 -18 25 -36 35
-38 10 -3 19 -12 19 -19 0 -10 13 -14 39 -14 31 0 44 -6 60 -26 12 -15 21 -33
21 -41 0 -17 59 -43 100 -43 19 0 29 -5 28 -12 -2 -8 6 -12 20 -10 15 2 22 -2
22 -13 0 -10 5 -15 13 -12 6 3 20 8 30 12 12 5 17 2 17 -9 0 -17 47 -33 126
-41 27 -4 61 -8 76 -10 24 -4 28 -1 28 19 0 56 69 63 85 8 l9 -33 71 7 c38 3
89 15 113 25 27 11 54 16 72 12 35 -6 190 35 190 51 1 6 38 29 84 51 45 22 78
43 74 46 -5 3 24 31 63 62 40 31 68 57 63 57 -4 0 18 27 51 60 32 33 56 62 52
66 -3 4 13 34 37 68 58 81 91 148 138 280 43 120 49 165 48 364 -1 128 -10
214 -28 250 -5 9 -15 51 -22 92 -11 66 -29 123 -30 95 0 -5 -19 30 -42 77 -22
48 -44 86 -47 84 -3 -2 -24 27 -45 65 -22 38 -41 67 -44 64 -2 -2 -21 17 -42
43 -51 64 -100 109 -100 92 0 -9 -10 -5 -27 12 -16 13 -41 34 -58 44 -35 23
-193 79 -201 71 -3 -3 3 -14 14 -25 18 -18 18 -19 -29 -14 -26 2 -77 1 -113
-2 l-64 -7 24 -36 c13 -20 24 -41 24 -47 0 -7 16 -38 35 -70 19 -32 35 -59 35
-60 0 -2 -30 8 -67 20 -38 13 -83 24 -102 24 -31 0 -28 -3 40 -37 181 -90 307
-295 310 -501 0 -42 3 -51 9 -36 9 24 -1 124 -20 194 -33 125 -144 268 -255
331 -30 17 -55 33 -55 35 0 7 84 -27 142 -58 120 -64 212 -187 225 -301 l6
-52 11 39 c16 58 32 55 52 -8 17 -53 14 -99 -11 -181 -3 -11 3 -1 14 23 11 23
25 42 31 42 16 0 3 -77 -18 -110 -15 -24 -15 -24 17 3 19 15 36 26 38 23 3 -3
0 -20 -6 -39 -8 -22 -42 -64 -91 -111 -44 -42 -80 -80 -80 -85 0 -10 -34 -41
-44 -41 -5 0 -5 8 -2 17 4 10 -4 5 -18 -12 -13 -16 -27 -27 -31 -23 -10 10 22
58 39 58 7 0 21 9 31 20 9 10 22 18 29 17 6 -1 10 8 8 22 -1 13 9 45 24 70 23
42 10 33 -24 -15 -9 -13 -12 -14 -8 -3 2 8 -2 40 -9 70 -7 30 -14 44 -14 31
-1 -27 -37 -132 -50 -145 -6 -6 -22 -5 -43 1 -18 6 -78 18 -133 27 -55 9 -112
21 -126 27 -20 7 -35 6 -57 -6 -42 -21 -55 -20 -49 4 3 11 1 20 -3 20 -5 0
-10 -10 -12 -22 -3 -19 -10 -23 -46 -24 -23 0 -45 3 -48 8 -9 14 25 58 52 68
13 5 24 12 24 14 0 3 -7 3 -15 0 -11 -5 -13 -2 -9 10 4 11 13 15 23 11 13 -5
14 -4 3 7 -11 11 -16 10 -28 -7 -8 -10 -29 -21 -46 -23 -26 -3 -30 -1 -20 10
9 11 7 18 -8 31 -11 9 -20 13 -20 7 0 -5 8 -14 18 -19 22 -14 6 -14 -18 -1
-16 9 -18 8 -14 -5 4 -9 19 -22 35 -30 18 -10 26 -20 23 -30 -8 -19 -9 -19
-61 1 l-44 17 -52 -36 c-48 -32 -59 -35 -137 -39 l-84 -3 -19 50 c-28 72 -34
204 -13 284 41 159 151 300 291 374 54 28 64 36 44 37 -14 0 -49 -7 -78 -16
-59 -17 -91 -13 -72 10 7 8 11 20 10 28 -2 7 3 24 10 36 7 13 10 26 8 29 -3 2
1 20 9 38 17 43 17 45 -1 45 -8 0 -24 9 -36 21 -13 13 -29 19 -41 16 -10 -3
-21 0 -24 6 -4 11 -57 21 -66 12z m90 -38 c16 4 22 1 22 -11 0 -9 8 -16 20
-16 22 0 28 -34 9 -46 -6 -3 -9 -15 -6 -25 7 -27 -13 -37 -51 -24 l-33 11 25
12 c36 16 33 33 -4 22 -30 -9 -47 1 -35 20 4 6 -6 7 -26 3 -29 -6 -31 -5 -20
15 16 30 52 53 66 42 6 -5 21 -7 33 -3z m878 -44 c24 -15 54 -67 54 -93 0 -27
-35 -4 -78 51 -26 33 -49 65 -50 70 -5 12 39 -5 74 -28z m-115 -3 c48 -13 77
-45 63 -68 -20 -31 -51 -25 -131 27 l-78 51 55 0 c30 0 71 -5 91 -10z m-833
-45 c8 -7 14 -41 16 -83 3 -62 1 -73 -18 -90 -11 -10 -25 -27 -31 -36 -6 -11
-16 -15 -27 -11 -21 8 -29 83 -11 110 21 31 16 41 -21 37 -27 -3 -34 0 -39 17
-9 34 -26 24 -33 -19 -7 -44 -18 -50 -34 -20 -15 28 -9 81 10 90 8 4 24 12 35
18 25 14 135 5 153 -13z m737 -29 c14 -18 25 -45 25 -61 0 -26 -1 -27 -22 -13
-27 18 -54 61 -64 102 -6 26 -5 27 14 17 12 -6 33 -26 47 -45z m331 0 c33 -33
44 -51 44 -75 0 -24 -4 -31 -19 -31 -22 0 -39 24 -69 98 -12 30 -16 52 -10 52
6 0 30 -20 54 -44z m-1293 -36 c-7 -8 -22 24 -16 34 4 5 10 1 13 -10 4 -10 6
-21 3 -24z m-33 -6 c0 -15 6 -24 16 -24 13 0 15 -7 9 -37 -9 -50 -22 -73 -42
-73 -14 0 -14 2 2 20 24 27 7 26 -22 -2 -29 -27 -31 -8 -4 45 10 20 16 37 11
37 -12 0 -38 -33 -51 -65 l-12 -30 -7 30 -6 30 -8 -40 c-6 -30 -10 -36 -17
-23 -5 10 -3 33 8 64 9 27 18 43 20 37 3 -7 21 5 43 28 41 43 60 44 60 3z
m350 6 c0 -16 -7 -20 -30 -20 -18 0 -30 5 -30 13 0 20 10 27 37 27 16 0 23 -6
23 -20z m794 -67 c23 -23 35 -53 21 -53 -31 0 -115 82 -115 112 0 11 65 -29
94 -59z m118 49 c15 -15 -8 -42 -36 -42 -11 1 -46 14 -76 31 l-55 30 78 -4
c43 -2 83 -9 89 -15z m199 -77 c23 -49 24 -84 4 -92 -9 -3 -24 2 -35 12 -19
17 -24 33 -35 120 l-7 50 27 -25 c15 -14 36 -43 46 -65z m-1021 19 c-151 -86
-252 -237 -280 -422 -9 -53 -8 -82 5 -141 8 -41 13 -76 10 -79 -3 -3 -5 3 -6
14 0 17 -1 16 -9 -4 -5 -12 -7 -30 -4 -40 10 -29 -33 28 -65 88 -42 79 -59
167 -42 228 23 88 50 79 52 -18 l1 -55 13 78 c29 169 127 290 291 356 69 28
87 25 34 -5z m913 -19 c11 -5 17 -16 15 -29 -6 -43 -90 -25 -141 32 -16 17
-14 18 46 11 34 -4 70 -10 80 -14z m-238 -25 c22 0 75 -50 75 -71 0 -39 -57
-9 -102 53 -19 27 -19 31 -4 25 10 -4 24 -7 31 -7z m115 -5 c57 -29 86 -89 56
-114 -29 -24 -62 11 -84 92 -12 42 -11 42 28 22z m311 -57 c22 -43 32 -129 16
-144 -4 -5 -16 -3 -25 2 -13 9 -18 29 -20 98 -1 47 0 86 2 86 3 0 15 -19 27
-42z m-1572 7 c30 -15 41 -33 41 -65 0 -11 9 -24 20 -30 34 -18 26 -63 -20
-107 -43 -40 -60 -47 -67 -26 -3 7 8 18 23 23 27 11 24 25 -6 32 -8 2 -21 17
-28 33 l-13 30 -25 -28 c-24 -28 -25 -28 -47 -10 -20 16 -24 33 -18 81 0 6 8
12 16 12 8 0 22 12 32 28 30 47 46 51 92 27z m1437 -16 c62 -19 86 -80 35 -87
-17 -3 -37 9 -72 44 -27 27 -49 52 -49 56 0 9 30 4 86 -13z m-11 -140 c8 -34
0 -49 -24 -49 -24 0 -41 41 -41 97 l0 47 29 -33 c17 -19 33 -46 36 -62z m-135
52 c33 -23 39 -61 11 -61 -20 0 -91 64 -91 83 0 13 50 0 80 -22z m377 -121 c3
-38 0 -61 -9 -74 -14 -18 -15 -18 -32 0 -16 16 -18 29 -12 98 4 43 10 84 13
90 11 16 35 -53 40 -114z m-142 71 c36 -20 61 -61 52 -85 -6 -15 -9 -15 -34
-2 -25 12 -93 94 -93 111 0 9 39 -4 75 -24z m-47 -88 c30 -69 34 -90 22 -113
-14 -27 -36 -25 -56 5 -13 20 -15 38 -9 90 3 36 10 65 14 65 4 0 17 -21 29
-47z m-99 1 c35 -29 40 -54 12 -54 -18 0 -71 56 -71 73 0 15 30 5 59 -19z
m-1609 -39 c7 -8 16 -13 20 -10 5 3 16 2 25 -1 12 -5 15 -14 11 -35 -4 -22 -1
-29 14 -34 35 -11 39 -105 5 -105 -18 0 -19 12 -3 28 16 16 -19 29 -42 14 -14
-9 -19 -6 -29 14 -13 30 -25 30 -45 2 l-16 -22 -27 20 c-32 24 -42 61 -19 70
9 3 16 16 16 28 0 12 5 27 12 34 17 17 63 15 78 -3z m1818 -15 c43 -31 63 -73
44 -92 -17 -17 -56 14 -86 68 -14 25 -26 48 -26 50 0 12 33 0 68 -26z m131
-67 c2 -73 -35 -122 -67 -89 -13 13 -13 20 1 63 9 26 24 66 33 88 l18 40 7
-30 c3 -16 7 -49 8 -72z m-1755 -7 c8 -33 0 -51 -30 -65 -34 -15 -33 -16 -28
27 4 28 3 33 -5 22 -9 -12 -11 -11 -11 8 0 18 4 22 19 17 11 -3 22 -1 26 5 11
17 23 11 29 -14z m1506 -73 c0 -13 -4 -23 -8 -23 -14 0 -50 43 -61 73 -19 49
-12 52 29 12 24 -23 40 -48 40 -62z m71 -50 c-7 -15 -18 -23 -29 -21 -24 4
-28 75 -6 125 l16 38 15 -59 c12 -45 13 -64 4 -83z m-1467 85 c10 -24 37 -78
62 -121 25 -43 44 -83 42 -88 -2 -6 -23 17 -47 50 -25 34 -46 61 -48 61 -6 0
4 -16 51 -82 22 -32 37 -60 34 -64 -4 -3 -25 15 -49 40 -23 26 -44 44 -47 41
-3 -3 18 -30 47 -59 78 -79 55 -91 -27 -15 -95 88 -137 159 -67 113 l26 -17
-21 36 c-12 20 -20 44 -18 53 3 14 7 13 30 -6 l27 -21 -14 35 c-17 39 -20 86
-6 86 5 0 16 -19 25 -42z m1551 -38 c8 -25 -1 -40 -25 -40 -24 0 -40 29 -40
70 l0 31 29 -21 c17 -11 33 -29 36 -40z m-1670 -19 c-3 -12 -15 -21 -25 -21
-18 0 -18 2 3 23 26 27 31 26 22 -2z m-154 -86 c31 -8 78 -29 105 -47 40 -27
50 -39 52 -66 3 -31 1 -33 -20 -28 l-23 6 23 -11 c28 -15 28 -28 0 -23 l-23 5
23 -12 c12 -7 22 -16 22 -21 0 -5 -10 -3 -22 3 -21 11 -22 11 -9 -5 13 -16 12
-16 -10 -7 -13 6 -69 22 -124 37 -92 24 -171 54 -101 38 21 -5 27 -4 22 5 -4
6 -19 11 -34 11 -25 1 -24 2 12 18 l40 18 -35 14 c-18 8 -41 15 -49 15 -8 0
-15 5 -15 12 0 6 -3 15 -7 19 -5 4 -8 27 -8 51 l0 43 63 -30 c34 -16 87 -36
118 -45z m1659 20 c0 -23 -28 -25 -34 -2 -11 43 -8 52 14 32 11 -10 20 -24 20
-30z m-1510 21 c0 -10 -7 -12 -22 -8 -21 5 -21 6 -2 13 10 4 20 8 22 8 1 1 2
-5 2 -13z m1211 -113 c-27 -57 -60 -105 -100 -146 -71 -75 -81 -94 -83 -151 0
-24 -5 -50 -10 -57 -6 -10 -7 -6 -3 11 5 23 5 23 -6 5 -6 -11 -23 -33 -38 -48
l-26 -29 -5 39 c-5 34 -2 39 25 53 31 16 50 45 60 93 3 15 31 54 61 85 72 74
132 164 147 221 7 24 14 36 15 27 2 -10 -15 -56 -37 -103z m242 87 c-6 -21
-148 -160 -164 -160 -19 0 -6 17 69 98 77 82 105 100 95 62z m363 -57 c-4 -10
-6 -18 -4 -19 2 0 -3 -8 -11 -17 -7 -9 -17 -15 -21 -12 -5 3 -20 0 -34 -7 -25
-11 -25 -13 -11 -35 13 -20 13 -23 1 -23 -8 0 -18 -5 -21 -10 -4 -7 3 -8 22
-4 15 4 25 4 22 0 -4 -4 -58 -21 -120 -38 -63 -16 -125 -36 -139 -43 -23 -12
-26 -11 -27 6 -1 10 2 19 6 19 4 0 16 7 27 15 18 14 18 15 -7 6 -25 -9 -26 -8
-27 32 -1 26 4 47 16 60 24 26 117 72 177 86 28 7 70 23 95 36 l45 23 9 -28
c5 -16 5 -37 2 -47z m-1536 2 c0 -5 -5 -3 -10 5 -5 8 -10 20 -10 25 0 6 5 3
10 -5 5 -8 10 -19 10 -25z m-188 -22 c61 -49 118 -107 118 -120 0 -13 -158 98
-172 121 -23 35 10 35 54 -1z m181 -8 c9 -20 17 -41 17 -48 -1 -20 -50 43 -50
64 0 30 15 23 33 -16z m987 11 c0 -19 -40 -67 -51 -61 -5 4 0 24 11 46 19 37
40 45 40 15z m200 4 c-13 -24 -159 -134 -168 -126 -13 14 136 146 164 146 12
0 12 -4 4 -20z m-1035 -176 c29 -29 46 -56 54 -87 11 -44 48 -87 77 -87 9 0
10 -8 4 -30 -5 -17 -5 -28 -1 -26 4 3 34 -4 66 -15 57 -20 106 -24 150 -15 11
3 20 5 20 6 0 1 12 3 27 5 15 2 44 16 64 32 l37 28 -6 -40 c-3 -22 -9 -58 -13
-79 -5 -28 -4 -37 4 -32 7 4 12 1 12 -9 0 -11 -5 -15 -15 -11 -8 3 -15 0 -15
-7 0 -7 -16 -19 -35 -26 -19 -7 -35 -16 -35 -21 0 -5 -7 -7 -15 -4 -8 4 -15 1
-15 -5 0 -17 19 -13 56 10 25 15 34 17 34 7 0 -10 2 -10 8 -1 5 8 12 9 22 2
13 -8 13 -10 0 -18 -8 -5 -18 -7 -22 -5 -5 3 -11 -2 -14 -10 -3 -9 -12 -16
-20 -16 -8 0 -14 -5 -14 -12 0 -6 3 -8 6 -5 4 4 26 -18 49 -47 38 -49 44 -53
57 -40 14 14 16 14 21 -1 4 -9 1 -18 -7 -21 -8 -3 -11 -15 -8 -30 5 -25 -3
-30 -28 -14 -12 8 -12 10 3 16 15 5 13 11 -17 44 -19 21 -40 49 -47 62 l-12
23 -9 -26 c-7 -20 -20 -30 -52 -39 -46 -13 -106 -6 -106 12 0 6 -3 8 -7 5 -3
-4 -16 2 -28 13 l-22 21 -18 -27 c-16 -25 -16 -28 -1 -36 9 -5 16 -14 16 -20
0 -6 -8 -4 -19 6 -16 15 -20 15 -31 1 -10 -12 -9 -16 4 -21 9 -3 13 -11 10
-18 -3 -6 2 -2 10 8 12 15 16 16 16 5 1 -10 4 -9 11 4 7 13 7 22 0 31 -13 15
-4 49 10 40 5 -3 9 -10 9 -15 0 -6 -6 -7 -12 -3 -8 5 -8 1 2 -12 22 -29 24
-30 16 -10 -5 15 -3 17 11 10 10 -4 51 -8 90 -8 71 -1 92 -12 61 -33 -18 -11
-119 -12 -141 -1 -16 8 -18 7 -13 -10 7 -22 -13 -35 -33 -23 -14 9 -46 7 -75
-5 -16 -6 -18 -4 -14 19 3 17 0 28 -10 32 -12 4 -13 8 -4 17 14 14 23 7 25
-21 1 -11 7 -23 14 -25 16 -7 17 6 1 22 -8 8 -2 23 27 59 21 26 40 49 40 51 1
1 15 -3 31 -9 58 -24 164 -16 164 13 0 12 -14 10 -36 -6 -13 -10 -23 -11 -31
-4 -9 7 -13 7 -13 -1 0 -18 -30 -12 -31 7 0 10 -3 12 -6 5 -8 -21 -23 -15 -24
10 -1 16 -2 18 -6 5 -2 -10 -7 -18 -11 -18 -12 0 -52 44 -52 57 0 15 10 16 44
3 20 -7 24 -6 20 5 -3 7 -12 11 -20 8 -8 -3 -14 0 -14 6 0 6 -3 10 -7 9 -16
-4 -73 33 -67 43 4 8 10 7 16 -2 8 -11 9 -10 4 4 -7 21 -4 21 58 2 56 -17 90
-19 82 -6 -3 5 -15 7 -26 4 -16 -4 -20 0 -21 18 -1 18 -2 20 -6 6 -3 -11 -10
-16 -20 -13 -8 3 -19 6 -24 6 -5 0 -9 12 -10 28 l0 27 -11 -25 -10 -25 -11 23
c-13 29 -25 28 -37 -3 -9 -24 -30 -35 -30 -15 0 6 -4 10 -9 10 -5 0 -8 -6 -7
-12 0 -7 -3 -13 -9 -13 -5 0 -9 11 -8 25 1 14 0 18 -4 10 -3 -8 -10 -18 -15
-21 -5 -3 1 -14 12 -24 18 -16 23 -17 30 -5 5 8 13 11 17 6 9 -9 -24 -36 -44
-36 -7 0 -13 5 -13 10 0 6 -7 10 -16 10 -11 0 -15 6 -12 18 4 13 0 18 -13 18
-10 -1 -18 3 -18 7 0 4 -10 17 -23 27 l-23 19 22 1 c12 0 23 -6 26 -12 2 -7 8
-9 13 -5 5 5 1 13 -10 19 -14 8 -16 12 -5 19 8 4 19 3 26 -3 21 -17 15 1 -8
25 -15 17 -19 18 -14 5 6 -14 2 -18 -15 -18 -17 0 -21 4 -17 20 3 13 0 20 -9
20 -17 0 -19 27 -2 32 7 3 6 7 -5 11 -9 3 -17 2 -17 -3 0 -6 -9 -10 -20 -10
-11 0 -20 2 -20 4 0 2 -3 12 -7 22 -5 14 -2 16 15 12 12 -4 22 -2 22 4 0 5 12
8 28 6 25 -3 27 0 26 30 0 17 -3 32 -7 32 -44 0 -43 0 -24 -11 20 -12 23 -39
3 -39 -20 0 -39 27 -32 45 3 9 2 13 -4 10 -16 -10 -50 5 -50 21 0 17 22 18 38
2 13 -13 17 3 12 47 -2 19 0 18 24 -4 17 -16 22 -27 15 -32 -16 -9 5 -21 24
-13 20 7 43 -32 24 -39 -7 -3 -5 -6 6 -6 19 -1 24 -31 5 -31 -7 0 -5 -5 5 -11
27 -16 20 -32 -13 -27 -19 3 -30 0 -30 -7 0 -7 11 -10 29 -7 22 3 29 -1 33
-16 3 -11 1 -25 -6 -32 -8 -8 -6 -9 8 -4 16 6 18 4 13 -10 -4 -9 -3 -15 2 -11
5 3 12 1 15 -4 4 -5 2 -12 -4 -16 -5 -3 -15 -16 -20 -28 -8 -16 -5 -14 10 6
21 26 48 29 33 4 -4 -7 0 -6 10 2 15 12 21 9 18 -11 0 -4 6 -5 14 -2 20 8 19
21 -2 28 -10 3 -29 22 -42 41 -13 19 -28 32 -34 28 -6 -4 -8 0 -4 10 3 9 0 40
-7 68 -11 40 -25 63 -64 100 -43 41 -122 153 -122 173 0 4 23 -24 51 -61 28
-37 70 -87 94 -109z m345 151 c0 -24 -3 -25 -55 -25 -47 0 -55 3 -55 18 0 28
9 32 62 32 45 0 48 -2 48 -25z m-1046 -14 c-2 -3 -12 3 -22 13 -16 17 -16 18
5 5 12 -7 20 -15 17 -18z m541 -21 c10 -11 24 -20 31 -20 18 0 52 -52 37 -57
-6 -2 -9 -13 -6 -23 6 -23 -16 -27 -35 -8 -17 17 -15 41 3 35 12 -5 12 -2 3
19 -10 22 -13 23 -18 9 -5 -16 -9 -14 -28 10 -36 46 -25 77 13 35z m-115 -51
c45 -33 93 -65 106 -71 13 -6 24 -20 24 -30 0 -15 -3 -17 -20 -8 -10 6 -23 18
-28 26 -5 9 -25 23 -43 30 -31 13 -32 12 -15 -1 11 -8 23 -15 28 -15 4 0 8 -5
8 -11 0 -6 -8 -8 -17 -5 -56 16 -71 14 -25 -4 28 -12 52 -28 52 -35 0 -11 -6
-12 -31 -3 -16 6 -32 8 -35 6 -2 -3 14 -10 37 -17 28 -9 39 -17 35 -27 -3 -8
1 -15 12 -16 9 -1 -8 -4 -38 -8 l-55 -7 48 -1 c27 -1 47 -7 47 -13 0 -17 -128
-5 -147 13 -12 13 -10 14 19 11 l33 -3 -32 10 c-52 17 -38 23 35 17 l67 -6
-60 15 c-33 8 -69 24 -80 35 l-20 21 25 -7 c57 -15 63 -14 20 7 l-45 21 30 7
c17 4 22 8 13 9 -20 1 -58 35 -58 51 0 16 27 12 73 -10 23 -11 34 -15 23 -8
-67 46 -96 69 -96 78 0 22 32 7 110 -51z m1308 49 c-2 -7 -25 -26 -50 -43 -25
-16 -54 -36 -64 -43 -10 -7 4 -1 33 13 53 26 83 32 83 17 0 -11 -41 -48 -60
-55 -8 -3 -2 -6 15 -6 28 -1 28 -2 10 -14 -11 -8 -48 -23 -82 -35 -51 -17 -62
-18 -67 -6 -3 8 -4 14 -3 14 13 0 108 39 95 40 -9 0 -29 -5 -44 -10 -33 -13
-44 -5 -18 15 18 13 18 14 -5 8 -37 -10 -19 11 61 67 70 49 104 62 96 38z
m321 -5 c-12 -15 -12 -16 6 -9 14 5 17 4 10 -3 -6 -6 -21 -8 -34 -4 l-23 6 23
13 c32 18 34 17 18 -3z m-995 -19 c9 -32 0 -42 -39 -45 -73 -5 -85 -1 -85 30
0 29 2 30 53 34 28 2 55 4 58 5 4 1 10 -10 13 -24z m-244 -22 c-28 -22 -21
-38 20 -47 17 -4 30 -10 30 -14 0 -9 -37 -42 -71 -64 -25 -15 -27 -15 -37 8
-10 21 -8 27 16 44 25 19 25 22 10 32 -25 14 -22 26 10 43 38 21 49 20 22 -2z
m-816 -37 c-3 -7 2 -27 10 -44 21 -40 21 -41 -19 -41 -19 0 -35 5 -35 10 0 6
10 10 22 10 20 0 20 1 5 18 -10 11 -17 35 -17 57 0 37 1 38 19 21 11 -10 17
-24 15 -31z m528 33 c16 -14 34 -68 21 -68 -15 0 -53 44 -53 62 0 21 10 23 32
6z m1028 -2 c0 -17 -38 -66 -51 -66 -5 0 -7 12 -3 28 9 39 54 71 54 38z m-288
-46 l-22 -18 26 -19 c23 -17 25 -22 15 -42 -12 -22 -13 -22 -39 -5 -66 41 -85
74 -44 74 9 0 24 5 32 10 13 8 13 13 2 30 -13 21 -12 21 20 4 l32 -17 -22 -17z
m-1179 -8 c5 -7 12 -10 17 -7 13 8 21 -11 13 -31 -6 -15 -9 -13 -30 12 -24 30
-31 19 -12 -19 11 -21 10 -20 -17 3 -52 45 -71 76 -39 64 10 -4 15 0 15 11 0
17 2 17 23 -1 12 -10 26 -25 30 -32z m1398 9 c-12 -22 -41 -29 -41 -9 0 17 34
47 43 38 5 -4 4 -17 -2 -29z m589 30 c0 -12 -29 -41 -41 -41 -18 0 -9 27 14
38 28 14 27 14 27 3z m-995 -32 c10 -29 1 -34 -65 -33 -72 2 -92 8 -84 28 4
11 24 16 67 19 34 2 65 4 69 5 4 1 10 -7 13 -19z m352 -11 c-3 -40 -13 -58
-34 -58 -10 0 -14 6 -10 20 3 11 0 20 -6 20 -9 1 41 50 50 50 1 0 1 -15 0 -32z
m563 -8 c0 -40 -24 -49 -50 -19 -26 32 -25 37 8 42 15 2 30 5 35 6 4 0 7 -13
7 -29z m-470 -32 c-29 -23 -39 -23 -33 1 6 22 46 44 52 28 2 -6 -6 -19 -19
-29z m560 6 c0 -29 -8 -44 -36 -71 -38 -36 -57 -38 -62 -8 -3 10 15 36 44 66
27 27 50 49 51 49 2 0 3 -16 3 -36z m-1783 -2 c9 -11 10 -19 2 -28 -13 -16
-34 0 -42 32 -4 17 -5 17 -12 -4 -6 -18 -10 -20 -21 -11 -19 15 -18 27 4 32
25 6 55 -3 69 -21z m1566 -7 c-18 -37 -40 -46 -50 -20 -7 20 24 55 48 55 18 0
18 -2 2 -35z m-385 13 c-5 -15 -35 -34 -43 -27 -3 4 -3 14 1 23 7 18 48 23 42
4z m-377 -20 c9 -17 8 -23 -7 -32 -30 -17 -88 -22 -131 -12 -13 3 -23 1 -23
-5 0 -13 59 -16 131 -6 45 6 47 6 76 -36 28 -39 33 -67 13 -67 -10 0 -25 40
-21 58 2 11 -2 11 -19 2 -12 -6 -28 -9 -36 -6 -8 3 -14 2 -14 -2 0 -4 -18 -8
-40 -9 -25 -1 -40 2 -40 10 0 8 -3 7 -9 -2 -5 -8 -14 -10 -21 -6 -7 4 -22 9
-34 10 -35 4 -36 4 -36 20 0 8 8 20 18 26 13 8 17 20 14 40 -4 28 -4 28 54 31
33 2 71 4 86 5 19 2 31 -4 39 -19z m267 -13 c0 -19 -4 -35 -10 -35 -5 0 -6 -4
-3 -10 3 -5 19 -10 36 -10 34 0 37 -13 8 -33 -15 -11 -17 -16 -7 -20 10 -5 10
-8 -2 -19 -9 -7 -14 -21 -12 -30 2 -13 -3 -18 -17 -18 -25 0 -25 1 -7 45 16
38 13 45 -21 45 -27 0 -32 30 -5 31 10 0 12 3 5 6 -19 7 -16 33 5 33 14 0 14
2 3 9 -12 8 -12 12 -2 25 21 25 29 19 29 -19z m-1155 11 c7 -8 25 -16 38 -18
14 -2 25 -11 28 -23 2 -11 9 -24 17 -28 30 -17 8 -107 -27 -107 -13 0 -11 14
3 28 9 9 7 12 -9 12 -14 0 -27 10 -35 27 -21 43 -41 42 -36 -1 4 -35 3 -36
-32 -36 l-35 -1 24 -19 c21 -18 21 -20 4 -20 -29 0 -65 30 -60 50 2 9 0 24 -4
33 -11 19 -1 47 17 47 8 0 14 10 14 23 0 13 5 28 12 35 16 16 63 15 81 -2z
m1482 -6 c-20 -20 -155 -54 -155 -40 0 9 134 58 160 59 11 1 10 -4 -5 -19z
m88 -15 c-4 -48 -11 -59 -28 -45 -18 15 -20 51 -3 68 19 19 33 8 31 -23z m156
1 c25 -39 28 -94 6 -102 -24 -10 -45 16 -45 55 0 34 9 81 15 81 2 0 13 -15 24
-34z m-1393 0 c1 0 5 -11 8 -23 9 -28 -14 -32 -38 -7 -25 24 -21 47 7 38 12
-3 23 -7 23 -8z m874 -21 c-7 -8 -19 -15 -26 -15 -20 0 -17 27 4 39 23 13 39
-3 22 -24z m109 4 c-11 -21 -36 -35 -45 -26 -11 10 7 46 24 50 26 6 33 -2 21
-24z m-933 7 c22 -17 11 -35 -13 -20 -19 12 -29 34 -16 34 5 0 18 -6 29 -14z
m871 -11 c-4 -8 -17 -15 -29 -15 l-23 1 24 20 c26 21 37 19 28 -6z m402 -14
c-14 -40 -54 -81 -79 -81 -32 0 -24 20 26 67 55 51 67 54 53 14z m-1539 -14
c0 -4 -6 -2 -14 5 -8 7 -12 17 -9 22 5 8 23 -12 23 -27z m1348 12 c-10 -5 -48
-12 -85 -16 -41 -4 -71 -11 -76 -19 -10 -18 -47 -18 -47 -1 0 8 25 18 63 26
34 7 67 14 72 16 6 2 28 4 50 4 31 0 36 -2 23 -10z m56 -21 c10 -40 7 -83 -9
-104 -13 -16 -16 -17 -25 -4 -13 20 -13 44 2 91 13 44 23 49 32 17z m-56 -4
c-20 -20 -148 -33 -148 -15 0 6 18 12 43 12 23 1 56 5 72 9 47 12 50 11 33 -6z
m-1110 -12 c3 -9 -3 -13 -19 -10 -12 1 -24 9 -27 16 -3 9 3 13 19 10 12 -1 24
-9 27 -16z m885 -2 c-3 -11 -14 -20 -24 -20 -22 0 -24 11 -7 28 19 19 37 14
31 -8z m600 -12 c-9 -51 -22 -68 -59 -84 -72 -30 -65 16 11 76 28 21 51 39 52
39 1 1 0 -14 -4 -31z m-1533 -10 c0 -3 -6 -9 -12 -11 -9 -4 -8 -6 2 -6 8 -1
23 -15 33 -33 14 -25 15 -33 5 -41 -9 -6 -8 -7 5 -3 35 11 16 -12 -23 -28 -44
-17 -105 -23 -65 -6 18 8 18 9 -5 10 -23 1 -23 2 -5 10 18 7 16 8 -10 12 l-30
4 35 11 35 11 -55 1 c-35 1 -50 4 -41 10 11 7 10 11 -5 20 -16 9 -12 11 26 12
l45 1 -42 10 c-65 14 -52 23 32 23 41 0 75 -3 75 -7z m417 -8 c36 -9 129 -6
164 5 23 7 39 -7 39 -35 -1 -11 -5 -10 -16 5 -16 19 -16 19 -9 -5 7 -22 6 -23
-8 -12 -13 11 -15 10 -10 -7 3 -12 1 -21 -6 -21 -6 0 -11 6 -12 13 0 10 -2 10
-6 0 -8 -21 -31 -15 -36 10 -4 19 -4 18 -6 -5 -1 -27 -20 -40 -22 -15 0 10 -2
10 -6 0 -7 -20 -23 -15 -33 10 -7 17 -9 18 -9 5 -1 -20 -21 -25 -21 -6 0 9 -3
9 -11 1 -12 -12 -49 -6 -49 9 0 5 -5 6 -10 3 -16 -10 -23 21 -10 45 8 15 17
19 28 15 9 -4 32 -11 49 -15z m406 -10 c-12 -26 -17 -29 -30 -18 -9 7 -11 14
-5 16 6 2 8 10 5 18 -4 10 2 14 20 14 25 0 25 -1 10 -30z m327 18 c0 -4 -19
-11 -42 -16 l-43 -10 45 -1 c36 -1 41 -4 27 -12 -9 -6 -15 -14 -12 -20 4 -5
-15 -9 -42 -10 l-48 -1 35 -11 35 -11 -30 -4 c-26 -4 -28 -5 -10 -12 18 -8 18
-9 -5 -10 -23 -1 -23 -2 -5 -10 18 -8 17 -9 -8 -9 -22 -1 -77 19 -95 34 -7 6
11 34 19 29 5 -3 6 1 4 8 -3 8 4 24 15 36 11 12 16 22 10 22 -6 0 -9 3 -6 8 6
9 156 10 156 0z m-1082 -15 c2 -8 -6 -13 -22 -13 -17 0 -26 5 -26 16 0 19 41
16 48 -3z m910 5 c-5 -15 -48 -24 -48 -10 0 14 12 22 33 22 10 0 17 -5 15 -12z
m402 -28 c26 -51 25 -60 -4 -60 -17 0 -26 7 -30 25 -6 23 1 75 10 75 2 0 13
-18 24 -40z m-1254 -9 c19 -35 20 -41 6 -46 -8 -3 -19 0 -24 7 -11 19 -10 28
5 29 6 0 2 4 -10 9 -13 5 -23 16 -23 25 0 28 25 15 46 -24z m794 25 c0 -19
-17 -29 -37 -22 -12 5 -13 9 -3 21 16 19 40 19 40 1z m-661 -36 l23 -35 -26
28 c-14 15 -26 33 -26 39 0 13 0 14 29 -32z m1046 3 c-13 -39 -38 -52 -72 -39
-14 6 -13 9 3 27 10 12 32 27 49 34 16 7 31 14 31 14 1 1 -4 -16 -11 -36z
m-1490 17 c3 -5 1 -10 -4 -10 -6 0 -11 5 -11 10 0 6 2 10 4 10 3 0 8 -4 11
-10z m269 -9 c7 -11 -22 -23 -35 -15 -5 3 -9 9 -9 15 0 12 37 12 44 0z m716
-32 c3 7 14 9 23 5 9 -3 14 -11 10 -17 -3 -5 -1 -7 5 -3 15 9 27 -13 13 -27
-8 -8 -15 -6 -26 9 -8 10 -15 14 -15 7 0 -6 5 -15 10 -18 15 -9 12 -35 -4 -35
-7 0 -21 10 -31 23 -16 21 -16 20 0 -7 11 -19 14 -31 7 -38 -13 -13 -33 -1
-26 16 3 8 0 17 -5 21 -6 3 -9 11 -6 16 4 5 2 9 -4 9 -5 0 -12 -6 -15 -12 -3
-9 -9 -7 -20 6 -9 11 -16 15 -16 9 0 -7 5 -15 10 -18 13 -8 13 -25 0 -25 -6 0
-14 10 -19 22 -6 17 0 29 28 58 l35 37 20 -24 c12 -16 21 -21 26 -14z m-2 22
c3 -8 -1 -12 -9 -9 -7 2 -15 10 -17 17 -3 8 1 12 9 9 7 -2 15 -10 17 -17z
m162 10 c0 -6 -4 -12 -9 -15 -13 -8 -42 4 -35 15 7 12 44 12 44 0z m-67 -32
c-6 -21 -6 -21 -27 -13 -12 5 -13 10 -4 24 15 23 37 15 31 -11z m267 -9 c0
-11 -7 -20 -15 -20 -13 0 -13 3 -3 20 7 11 14 20 15 20 2 0 3 -9 3 -20z
m-1035 -27 c36 -39 39 -53 15 -61 -9 -3 -11 2 -7 17 4 18 3 20 -9 10 -11 -9
-15 -8 -20 4 -3 9 -3 21 1 27 4 6 -4 10 -19 10 -29 0 -35 -15 -10 -24 15 -6
15 -9 -2 -29 -17 -19 -17 -20 -1 -8 25 20 46 -1 27 -26 -12 -15 -12 -16 0 -5
26 23 33 12 9 -15 -13 -15 -16 -21 -5 -13 19 15 46 22 46 12 0 -3 -15 -22 -32
-42 l-33 -35 40 36 c22 20 46 34 53 32 6 -3 10 -9 7 -14 -4 -5 2 -6 12 -2 17
7 17 5 -1 -22 -25 -41 -57 -75 -69 -75 -6 0 -2 10 9 22 16 19 16 20 1 9 -31
-24 -32 -2 -1 32 l29 32 -31 -28 c-28 -25 -34 -27 -57 -16 -21 10 -24 15 -16
26 10 11 8 12 -7 6 -16 -6 -17 -5 -6 9 11 14 10 16 -10 11 l-23 -5 25 21 25
22 -26 -12 c-18 -8 -33 -8 -45 -1 -16 9 -14 11 14 26 18 9 32 19 32 22 0 2
-14 -3 -31 -11 -17 -9 -33 -14 -36 -11 -3 2 13 14 36 26 55 28 52 34 -5 9 -25
-12 -48 -19 -50 -16 -3 3 20 16 50 30 33 15 56 32 56 41 0 27 30 17 65 -21z
m815 21 c0 -9 21 -24 50 -37 50 -22 69 -44 28 -32 -23 7 -23 7 -3 -9 20 -17
20 -17 -5 -11 -17 4 -21 3 -11 -3 16 -12 6 -32 -16 -32 -9 0 -32 12 -52 26
l-36 25 35 -30 c19 -17 38 -31 42 -31 4 0 8 -5 8 -10 0 -7 -8 -6 -22 1 -21 11
-22 11 -9 -4 23 -29 -6 -19 -44 14 -38 34 -41 55 -3 23 23 -19 23 -19 6 2 -10
11 -18 26 -18 32 0 6 -7 15 -15 20 -20 11 -9 43 12 35 8 -3 13 -13 10 -24 -6
-24 -2 -24 22 0 21 21 18 31 -10 31 -12 0 -16 5 -13 15 8 20 44 19 44 -1z
m-1305 -54 c39 -5 114 -10 168 -10 l98 0 39 -42 c27 -30 35 -45 27 -50 -7 -5
-2 -8 13 -9 l25 -1 -25 -8 c-23 -7 -22 -8 10 -10 29 -1 32 -3 15 -10 -18 -8
-16 -9 10 -11 57 -5 -210 -15 -277 -11 -49 3 -68 9 -68 18 0 8 -6 14 -12 14
-10 0 -9 3 0 9 10 6 3 11 -24 15 -28 6 -34 10 -23 17 11 7 9 9 -8 9 -15 0 -30
13 -48 43 -30 52 -31 60 -7 53 9 -3 49 -10 87 -16z m691 -15 c-3 -9 -11 -13
-16 -10 -8 5 -7 11 1 21 14 18 24 11 15 -11z m368 -7 c-3 -5 -12 -4 -20 3 -7
6 -11 15 -8 21 3 5 12 4 20 -3 7 -6 11 -15 8 -21z m61 2 c-5 -8 -11 -8 -17 -2
-6 6 -7 16 -3 22 5 8 11 8 17 2 6 -6 7 -16 3 -22z m113 1 c3 -8 -1 -12 -9 -9
-7 2 -15 10 -17 17 -3 8 1 12 9 9 7 -2 15 -10 17 -17z m-674 -20 c10 -11 15
-25 11 -31 -9 -14 -28 -1 -21 15 3 8 -2 11 -15 8 -18 -5 -26 7 -12 20 10 11
19 8 37 -12z m536 9 c0 -6 6 -10 13 -8 7 2 12 -1 12 -7 0 -5 -6 -9 -12 -9 -7
1 -13 -4 -13 -12 0 -8 -5 -14 -11 -14 -6 0 -8 7 -5 16 5 14 4 15 -9 4 -8 -7
-15 -9 -15 -4 0 5 -4 3 -9 -5 -5 -7 -14 -10 -21 -6 -8 5 -2 12 19 22 17 9 31
19 31 24 0 5 5 9 10 9 6 0 10 -5 10 -10z m118 -10 c3 -9 -2 -11 -17 -7 -11 3
-19 1 -15 -4 10 -17 -7 -31 -22 -18 -12 10 -13 9 -8 -6 6 -15 3 -17 -14 -13
-16 4 -19 2 -15 -10 5 -12 1 -14 -15 -10 -13 4 -20 2 -19 -6 1 -6 -4 -10 -10
-8 -7 1 -13 -2 -13 -8 0 -5 -5 -10 -11 -10 -22 0 -2 21 66 69 71 50 85 55 93
31z m622 13 c0 -3 -11 -26 -25 -50 -23 -38 -30 -43 -63 -44 l-37 -1 30 -8 30
-8 -33 -1 c-34 -1 -55 -27 -33 -41 7 -4 -9 -10 -39 -14 -74 -10 -411 -5 -404
5 3 5 20 9 37 10 27 0 29 2 12 9 -17 7 -16 9 10 10 26 1 27 3 10 10 -16 7 -12
9 20 10 35 2 36 3 13 9 l-27 6 34 37 34 37 163 7 c90 4 183 10 208 14 25 4 48
8 53 9 4 0 7 -2 7 -6z m-1160 -29 c0 -8 -4 -12 -10 -9 -5 3 -10 10 -10 16 0 5
5 9 10 9 6 0 10 -7 10 -16z m-70 -25 c0 -5 -7 -9 -15 -9 -15 0 -20 12 -9 23 8
8 24 -1 24 -14z m50 11 c0 -5 7 -10 15 -10 8 0 15 -4 15 -10 0 -14 -27 -13
-32 2 -2 6 -10 9 -18 6 -8 -2 1 -13 25 -27 l38 -22 -6 36 c-3 19 -2 35 4 35 5
0 9 -15 10 -32 1 -32 1 -32 10 -8 8 22 8 22 4 -7 -2 -19 1 -34 8 -37 8 -3 9
-7 2 -13 -5 -4 -11 -15 -13 -23 -2 -8 -10 -19 -18 -23 -8 -5 -12 -12 -9 -17 3
-4 -2 -11 -10 -14 -9 -3 -18 1 -21 9 -5 12 -9 11 -23 -6 -15 -19 -18 -20 -30
-5 -11 13 -10 21 8 48 11 18 21 26 21 18 0 -13 1 -13 10 0 8 12 10 12 16 -3 3
-9 10 -14 15 -11 13 8 11 24 -2 22 -6 -2 -14 3 -16 10 -4 11 -1 12 15 3 26
-14 32 -14 32 -1 0 6 -7 10 -16 10 -9 0 -30 8 -47 18 -18 9 -33 18 -35 19 -2
0 3 10 10 22 13 22 38 29 38 11z m623 -24 c30 -27 34 -35 21 -40 -9 -3 -21 -3
-26 1 -7 3 -8 1 -4 -5 9 -15 1 -15 -27 -1 -21 11 -21 11 -5 -7 13 -15 14 -21
3 -31 -10 -9 -18 -6 -38 15 -13 15 -29 36 -35 48 -10 18 -8 23 12 32 19 8 27
6 47 -11 21 -20 22 -20 6 -1 -38 46 -7 46 46 0z m-208 4 c3 -5 -1 -10 -9 -10
-9 0 -16 5 -16 10 0 6 4 10 9 10 6 0 13 -4 16 -10z m-468 -25 c8 -8 18 -13 23
-10 9 6 23 -25 15 -33 -3 -3 -5 1 -5 9 0 8 -12 -5 -26 -28 -27 -45 -31 -48
-53 -34 -11 7 -8 16 14 45 15 20 26 39 23 41 -3 3 -17 -13 -32 -35 -14 -22
-31 -40 -37 -40 -6 0 -9 3 -7 8 5 11 63 91 66 92 2 0 10 -7 19 -15z m604 -67
c20 -36 -11 -18 -41 24 -36 49 -40 42 -5 -10 21 -31 23 -38 10 -45 -20 -11
-32 -3 -55 41 -10 20 -19 33 -20 27 0 -5 9 -25 20 -43 24 -40 25 -48 3 -56
-10 -4 -20 -1 -26 9 -6 12 -12 13 -21 6 -9 -8 -18 -6 -32 5 -10 8 -12 12 -4 8
8 -4 5 3 -8 15 -25 25 -23 36 8 44 17 4 19 3 10 -8 -8 -9 -6 -14 5 -19 9 -3
14 -2 10 3 -8 14 5 41 21 41 8 0 14 5 14 11 0 5 4 8 9 4 6 -3 16 1 23 9 11 13
17 11 41 -17 15 -18 32 -40 38 -49z m-171 53 c0 -12 -29 -35 -36 -28 -7 6 17
36 29 37 4 0 7 -4 7 -9z m-988 -49 c-9 -6 -6 -12 13 -20 25 -12 34 -32 14 -32
-8 0 -8 -4 0 -14 10 -12 8 -13 -9 -9 -25 7 -34 19 -19 28 7 5 3 15 -12 31
l-22 24 24 0 c16 0 20 -3 11 -8z m72 -14 c-15 -7 -28 -7 -40 1 -16 9 -12 10
21 10 35 0 37 -2 19 -11z m126 -13 c11 -13 10 -14 -4 -9 -12 5 -16 0 -16 -20
0 -21 -5 -26 -25 -26 -31 0 -31 -5 -1 -33 13 -12 27 -34 30 -49 5 -24 3 -28
-14 -28 -11 0 -28 4 -38 9 -9 5 -25 12 -36 15 -14 5 -17 13 -13 35 5 23 2 30
-13 34 -28 7 -25 42 6 66 32 25 105 29 124 6z m98 -9 c7 -4 12 -2 12 4 0 7 8
9 19 5 11 -3 22 -1 26 5 11 18 25 11 25 -14 0 -13 -7 -30 -16 -37 -13 -11 -17
-10 -25 4 -14 25 -28 21 -22 -5 6 -22 4 -21 -20 5 -14 15 -33 27 -41 27 -9 0
-4 -10 15 -29 32 -32 39 -57 13 -47 -30 12 -69 19 -62 12 3 -4 21 -15 40 -24
28 -14 34 -23 36 -56 3 -33 1 -38 -13 -32 -9 3 -28 9 -41 12 -27 7 -30 16 -10
33 12 10 10 16 -10 36 -29 29 -30 41 -5 57 18 11 18 15 6 39 l-14 26 38 -7
c21 -4 43 -10 49 -14z m651 -17 c15 -25 17 -37 9 -55 -12 -27 -29 -35 -48 -24
-11 7 -11 14 1 42 7 18 12 41 11 51 -5 26 6 21 27 -14z m301 16 c0 -31 -62
-101 -79 -90 -18 10 -13 31 15 64 22 26 64 43 64 26z m45 -5 c3 -5 -1 -10 -9
-10 -9 0 -16 5 -16 10 0 6 4 10 9 10 6 0 13 -4 16 -10z m90 -9 c19 -8 19 -8
-2 -15 -24 -8 -43 -1 -43 15 0 11 17 11 45 0z m83 -54 c-10 -58 -28 -83 -52
-74 -19 7 -21 49 -5 80 38 73 70 70 57 -6z m92 57 c0 -16 -23 -44 -35 -44 -15
0 -21 31 -8 43 8 8 43 9 43 1z m90 -3 c0 -5 -7 -12 -16 -15 -28 -11 -54 -6
-54 9 0 10 11 15 35 15 19 0 35 -4 35 -9z m-500 -25 c0 -22 -35 -60 -48 -52
-20 12 -13 42 11 54 30 15 37 14 37 -2z m-653 -21 c27 -24 27 -24 6 -25 -23 0
-27 -8 -24 -42 2 -14 -4 -16 -33 -11 -29 4 -36 2 -36 -10 0 -9 10 -23 22 -31
21 -15 21 -16 2 -37 l-19 -22 38 5 c24 3 37 0 37 -8 0 -26 -80 -34 -100 -10
-6 8 -24 16 -38 18 -24 3 -27 7 -28 43 0 22 -4 52 -8 68 -20 70 118 118 181
62z m-457 -5 c0 -5 -8 -10 -17 -10 -15 0 -16 2 -3 10 19 12 20 12 20 0z m1285
-15 c-33 -28 -80 -33 -89 -10 -8 21 22 34 74 34 l45 0 -30 -24z m285 -10 c-19
-19 -51 -41 -71 -49 -31 -13 -39 -13 -55 -1 -18 13 -18 15 10 44 27 28 49 36
121 39 l30 2 -35 -35z m-626 10 c-6 -16 -24 -21 -24 -7 0 11 11 22 21 22 5 0
6 -7 3 -15z m-398 -4 c-4 -5 -1 -11 6 -13 7 -3 -2 -10 -20 -16 -37 -13 -39
-10 -14 17 17 20 38 28 28 12z m504 -26 c11 -13 8 -13 -19 -4 -35 12 -40 19
-12 19 10 0 24 -7 31 -15z m276 -29 c-8 -40 -50 -96 -73 -96 -12 0 -14 7 -8
27 7 30 74 118 82 109 3 -3 2 -21 -1 -40z m-117 5 c11 -7 9 -12 -11 -25 -56
-37 -119 -26 -102 18 7 18 88 23 113 7z m-251 -51 c73 -16 81 -26 75 -86 l-5
-51 -62 15 c-40 10 -111 15 -206 15 -124 1 -179 -5 -270 -25 -12 -2 -16 9 -18
50 -3 52 -3 53 32 67 80 34 329 41 454 15z m261 -17 c-20 -52 -51 -93 -75 -99
-34 -9 -40 1 -20 31 19 28 87 94 98 95 4 0 3 -12 -3 -27z m-123 2 c18 -15 18
-15 -5 -13 -14 2 -26 9 -29 16 -5 17 10 15 34 -3z m359 -5 c-10 -11 -37 -29
-61 -40 -34 -17 -47 -19 -63 -10 -27 14 -26 24 1 50 17 15 35 20 81 20 59 0
60 0 42 -20z m-366 -67 c-26 -51 -39 -62 -39 -35 0 19 39 72 53 72 3 0 -4 -17
-14 -37z m246 -2 l40 -8 -50 -22 c-67 -31 -117 -37 -133 -18 -11 12 -8 19 14
36 28 22 62 25 129 12z m-466 -31 c52 -6 97 -14 100 -18 4 -4 15 -7 25 -7 11
0 20 -8 22 -17 1 -11 -3 -15 -13 -11 -12 5 -12 7 -1 14 10 7 10 9 -2 9 -8 -1
-23 -7 -33 -14 -16 -13 -15 -15 14 -25 54 -19 27 -22 -55 -6 -99 19 -271 19
-360 0 -77 -16 -96 -13 -45 8 l34 14 -29 15 -30 16 35 7 c34 8 157 21 214 23
17 1 73 -3 124 -8z m-359 -45 c0 -2 -6 -5 -13 -8 -8 -3 -14 1 -14 8 0 7 6 11
14 8 7 -3 13 -6 13 -8z m643 -2 c26 -9 47 -20 47 -24 0 -11 -60 -29 -100 -29
-20 0 -45 6 -55 14 -18 13 -17 15 15 35 42 25 34 25 93 4z m-441 -46 c-12 -13
-22 -28 -22 -35 0 -7 -16 -9 -52 -5 -61 7 -71 12 -41 19 13 4 19 11 16 19 -3
10 8 15 39 18 23 2 52 4 62 5 18 2 18 1 -2 -21z m146 13 c20 0 32 -5 32 -13 0
-7 12 -18 28 -24 l27 -10 -25 0 c-14 0 -42 -3 -62 -7 -32 -7 -39 -5 -44 10 -4
11 -14 28 -23 38 -15 18 -15 19 9 13 14 -4 40 -7 58 -7z"/>
<path d="M542 1365 c0 -16 2 -22 5 -12 2 9 2 23 0 30 -3 6 -5 -1 -5 -18z"/>
<path d="M552 1315 c0 -11 3 -29 8 -40 11 -25 11 1 0 35 -6 20 -8 21 -8 5z"/>
<path d="M581 1294 c0 -11 3 -14 6 -6 3 7 2 16 -1 19 -3 4 -6 -2 -5 -13z"/>
<path d="M218 1113 c7 -3 16 -2 19 1 4 3 -2 6 -13 5 -11 0 -14 -3 -6 -6z"/>
<path d="M258 1103 c7 -3 16 -2 19 1 4 3 -2 6 -13 5 -11 0 -14 -3 -6 -6z"/>
<path d="M2005 1095 c-22 -8 -31 -14 -20 -14 11 0 34 6 50 14 38 17 22 17 -30
0z"/>
<path d="M1938 1073 c7 -3 16 -2 19 1 4 3 -2 6 -13 5 -11 0 -14 -3 -6 -6z"/>
<path d="M1865 1055 c-39 -17 -21 -18 25 0 19 7 28 14 20 14 -8 0 -28 -6 -45
-14z"/>
<path d="M1835 990 c-3 -5 -2 -10 4 -10 5 0 13 5 16 10 3 6 2 10 -4 10 -5 0
-13 -4 -16 -10z"/>
<path d="M760 810 c0 -5 5 -10 11 -10 5 0 7 5 4 10 -3 6 -8 10 -11 10 -2 0 -4
-4 -4 -10z"/>
<path d="M1216 689 c-13 -13 -22 -16 -26 -8 -5 7 -10 4 -15 -8 -7 -17 -8 -17
-15 2 -9 19 -9 19 -16 -2 -7 -25 -20 -30 -26 -11 -3 7 -7 6 -11 -5 -5 -13 -1
-17 14 -17 36 0 132 51 119 63 -3 2 -14 -4 -24 -14z"/>
<path d="M1056 571 c-8 -13 25 -19 54 -10 l25 8 -25 -2 c-14 -1 -30 2 -37 6
-6 4 -14 3 -17 -2z"/>
<path d="M1332 748 c-7 -7 -12 -17 -12 -22 0 -6 5 -3 11 7 10 18 12 18 32 0
l22 -18 -19 23 c-22 26 -19 25 -34 10z"/>
<path d="M679 643 c-13 -16 -12 -17 4 -4 9 7 17 15 17 17 0 8 -8 3 -21 -13z"/>
<path d="M1530 680 c35 -24 54 -31 30 -11 -14 11 -29 21 -35 21 -5 0 -3 -5 5
-10z"/>
<path d="M313 583 c43 -2 110 -2 150 0 40 1 5 3 -78 3 -82 0 -115 -2 -72 -3z"/>
<path d="M1718 553 c23 -2 59 -2 80 0 20 2 1 4 -43 4 -44 0 -61 -2 -37 -4z"/>
<path d="M1410 581 c0 -6 4 -13 10 -16 6 -3 7 1 4 9 -7 18 -14 21 -14 7z"/>
<path d="M1440 536 c0 -2 8 -10 18 -17 15 -13 16 -12 3 4 -13 16 -21 21 -21
13z"/>
<path d="M826 518 l-18 -33 21 25 c18 22 26 40 18 40 -1 0 -11 -15 -21 -32z"/>
<path d="M1350 545 c0 -10 40 -75 47 -75 2 0 -6 17 -18 38 -28 45 -29 47 -29
37z"/>
<path d="M1652 1380 c0 -19 2 -27 5 -17 2 9 2 25 0 35 -3 9 -5 1 -5 -18z"/>
<path d="M960 1381 c0 -6 4 -13 10 -16 6 -3 7 1 4 9 -7 18 -14 21 -14 7z"/>
<path d="M1033 1343 c9 -2 23 -2 30 0 6 3 -1 5 -18 5 -16 0 -22 -2 -12 -5z"/>
<path d="M1108 1343 c7 -3 16 -2 19 1 4 3 -2 6 -13 5 -11 0 -14 -3 -6 -6z"/>
<path d="M1161 1318 c6 -11 8 -26 5 -34 -3 -8 -2 -13 3 -10 5 3 11 17 13 30 4
18 0 26 -13 29 -16 4 -17 2 -8 -15z"/>
<path d="M1636 1309 c-8 -42 0 -50 9 -9 4 17 5 34 2 36 -2 3 -7 -10 -11 -27z"/>
<path d="M1200 1296 c0 -16 5 -23 16 -22 9 0 19 -4 21 -10 2 -7 -5 -10 -20 -7
-15 3 -28 -2 -38 -14 -13 -16 -13 -17 3 -4 13 10 25 11 48 3 16 -6 30 -9 30
-6 0 11 -22 46 -41 65 -19 19 -19 19 -19 -5z"/>
<path d="M1117 1291 c-3 -14 0 -21 9 -21 16 0 18 9 5 28 -6 10 -10 9 -14 -7z"/>
<path d="M1140 1299 c0 -5 5 -7 10 -4 6 3 10 8 10 11 0 2 -4 4 -10 4 -5 0 -10
-5 -10 -11z"/>
<path d="M1038 1293 c7 -3 16 -2 19 1 4 3 -2 6 -13 5 -11 0 -14 -3 -6 -6z"/>
<path d="M1670 1214 c-23 -30 -40 -57 -37 -60 2 -2 23 23 46 56 53 76 47 78
-9 4z"/>
</g>
</svg>
