<svg width="1901" height="924" viewBox="0 0 1901 924" fill="none" xmlns="http://www.w3.org/2000/svg">
<path d="M1293.01 655.325C566.306 894.933 370.166 870.948 -9.28223 844.683L-1.85645 918.94C337.155 924.312 472.165 960.789 1240.11 705.449C1345.62 673.332 1564.05 650.015 1827.67 612.627C1668 615.805 1697.79 584.808 1293.01 655.325Z" fill="#324A65" fill-opacity="0.51"/>
<path d="M-1.85645 840.969L1.85645 -0.000244141H1909.35L1923.28 620.052H1893.57C1700.5 545.795 1038.99 714.112 732.368 807.553C531.967 854.199 404.424 875.81 -1.85645 840.969Z" fill="#2D3B4B"/>
<path d="M901.304 776.922C510.522 877.17 142.946 888.309 -40.8418 841.898C200.992 826.447 288.426 869.246 633.667 776.922C1070.63 660.069 1486.3 448.384 1901.93 387.069V594.062V630.263C1661.52 589.421 1381.2 629.335 901.304 776.922Z" fill="#324A65"/>
<path d="M958.686 -0.000244141C907.181 484.787 680.938 615.219 -1.32007 662.71L8.60691e-05 -9.0285e-06L958.686 -0.000244141Z" fill="#324A65"/>
</svg>
