<svg width="62" height="57" viewBox="0 0 62 57" fill="none" xmlns="http://www.w3.org/2000/svg">
<path fill-rule="evenodd" clip-rule="evenodd" d="M18.4168 0.205901C21.6546 0.0669997 22.687 0.0361328 30.9347 0.0361328C39.1825 0.0361328 40.2148 0.0695719 43.4499 0.205901C46.685 0.342229 48.8932 0.823239 50.8254 1.52032C52.8487 2.23283 54.6843 3.34661 56.2024 4.78706C57.7482 6.19922 58.9407 7.90719 59.7025 9.79522C60.4533 11.5958 60.9667 13.6536 61.1158 16.6631C61.2648 19.6855 61.2979 20.6475 61.2979 28.3308C61.2979 36.0166 61.2621 36.9787 61.1158 39.9959C60.9695 43.0054 60.4533 45.0632 59.7025 46.8638C58.9406 48.752 57.7462 50.4629 56.2024 51.8771C54.6843 53.3175 52.8487 54.4287 50.8254 55.1387C48.8932 55.8383 46.685 56.3168 43.4554 56.4557C40.2148 56.5946 39.1825 56.6254 30.9347 56.6254C22.687 56.6254 21.6546 56.592 18.4168 56.4557C15.1873 56.3193 12.979 55.8383 11.0468 55.1387C9.02057 54.4286 7.1847 53.3156 5.66703 51.8771C4.12232 50.4641 2.92693 48.7541 2.16422 46.8664C1.41618 45.0658 0.902768 43.008 0.753712 39.9985C0.604657 36.9761 0.571533 36.0141 0.571533 28.3308C0.571533 20.6449 0.607417 19.6829 0.753712 16.6682C0.900008 13.6536 1.41618 11.5958 2.16422 9.79522C2.92806 7.9074 4.12436 6.19746 5.66979 4.78449C7.1853 3.34532 9.01933 2.2314 11.0441 1.52032C12.9763 0.823239 15.1845 0.344802 18.4141 0.205901H18.4168ZM43.2042 5.29894C40.0023 5.16261 39.0417 5.13432 30.9347 5.13432C22.8278 5.13432 21.8672 5.16261 18.6652 5.29894C15.7035 5.42498 14.097 5.88541 13.026 6.27382C11.6099 6.78827 10.5969 7.39789 9.5342 8.3882C8.52682 9.30148 7.75155 10.4133 7.26524 11.6421C6.84844 12.6401 6.35434 14.1372 6.21909 16.8972C6.07279 19.881 6.04243 20.7761 6.04243 28.3308C6.04243 35.8855 6.07279 36.7806 6.21909 39.7644C6.35434 42.5244 6.84844 44.0215 7.26524 45.0195C7.75105 46.2464 8.52669 47.3602 9.5342 48.2734C10.5141 49.2122 11.7093 49.935 13.026 50.3878C14.097 50.7762 15.7035 51.2366 18.6652 51.3626C21.8672 51.499 22.825 51.5273 30.9347 51.5273C39.0445 51.5273 40.0023 51.499 43.2042 51.3626C46.166 51.2366 47.7725 50.7762 48.8435 50.3878C50.2595 49.8733 51.2726 49.2637 52.3353 48.2734C53.3428 47.3602 54.1184 46.2464 54.6042 45.0195C55.021 44.0215 55.5151 42.5244 55.6504 39.7644C55.7967 36.7806 55.827 35.8855 55.827 28.3308C55.827 20.7761 55.7967 19.881 55.6504 16.8972C55.5151 14.1372 55.021 12.6401 54.6042 11.6421C54.0522 10.3225 53.398 9.37851 52.3353 8.3882C51.3552 7.44951 50.1621 6.72707 48.8435 6.27382C47.7725 5.88541 46.166 5.42498 43.2042 5.29894ZM27.0565 37.0533C29.2224 37.8934 31.6341 38.0068 33.8798 37.3741C36.1254 36.7413 38.0657 35.4017 39.3691 33.5839C40.6726 31.7662 41.2584 29.5831 41.0265 27.4076C40.7946 25.2321 39.7594 23.1991 38.0977 21.6558C37.0384 20.6693 35.7576 19.9139 34.3474 19.4441C32.9372 18.9742 31.4328 18.8016 29.9424 18.9385C28.452 19.0755 27.0128 19.5187 25.7283 20.2363C24.4438 20.9538 23.346 21.9278 22.5139 23.0882C21.6819 24.2485 21.1362 25.5664 20.9163 26.9468C20.6964 28.3273 20.8076 29.736 21.2421 31.0716C21.6765 32.4071 22.4233 33.6363 23.4287 34.6706C24.4341 35.705 25.6731 36.5187 27.0565 37.0533ZM19.8991 18.047C21.3483 16.6965 23.0688 15.6252 24.9623 14.8943C26.8558 14.1634 28.8852 13.7873 30.9347 13.7873C32.9842 13.7873 35.0137 14.1634 36.9072 14.8943C38.8007 15.6252 40.5212 16.6965 41.9704 18.047C43.4196 19.3975 44.5692 21.0007 45.3535 22.7652C46.1378 24.5297 46.5415 26.4209 46.5415 28.3308C46.5415 30.2407 46.1378 32.1318 45.3535 33.8963C44.5692 35.6608 43.4196 37.2641 41.9704 38.6146C39.0436 41.342 35.0739 42.8743 30.9347 42.8743C26.7956 42.8743 22.8259 41.342 19.8991 38.6146C16.9723 35.8872 15.328 32.188 15.328 28.3308C15.328 24.4736 16.9723 20.7744 19.8991 18.047ZM50.0028 15.9532C50.362 15.6375 50.6495 15.2578 50.8483 14.8367C51.0472 14.4156 51.1534 13.9617 51.1605 13.5016C51.1677 13.0416 51.0758 12.5849 50.8902 12.1586C50.7046 11.7323 50.4291 11.345 50.08 11.0197C49.7309 10.6944 49.3153 10.4377 48.8578 10.2647C48.4004 10.0917 47.9103 10.0061 47.4166 10.0128C46.923 10.0195 46.4358 10.1184 45.9839 10.3037C45.532 10.489 45.1247 10.757 44.7859 11.0916C44.127 11.7425 43.7663 12.607 43.7803 13.5016C43.7943 14.3963 44.1819 15.2506 44.8608 15.8833C45.5398 16.516 46.4566 16.8772 47.4166 16.8902C48.3767 16.9033 49.3044 16.5671 50.0028 15.9532Z" fill="white"/>
</svg>
