<svg width="67" height="63" viewBox="0 0 67 63" fill="none" xmlns="http://www.w3.org/2000/svg">
<path fill-rule="evenodd" clip-rule="evenodd" d="M33.3995 0C15.1583 0 0 13.8287 0 31.331C0 48.8333 15.1583 62.6619 33.3995 62.6619C51.6407 62.6619 66.7991 48.8333 66.7991 31.331C66.7991 13.8287 51.6407 0 33.3995 0ZM6.07264 31.331C6.07264 17.579 18.1015 6.07263 33.3995 6.07263C48.6975 6.07263 60.7264 17.579 60.7264 31.331C60.7264 45.083 48.6975 56.5893 33.3995 56.5893C18.1015 56.5893 6.07264 45.083 6.07264 31.331ZM54.4282 21.1613C54.8421 20.1489 54.6794 18.9921 54.0024 18.133C53.3254 17.2739 52.2387 16.8454 51.1575 17.0111L9.83697 23.3459C8.46447 23.5563 7.40958 24.671 7.27505 26.053C7.14053 27.435 7.96064 28.7322 9.2668 29.2033L28.6445 36.1934L36.8061 51.1743C37.3668 52.2037 38.4701 52.8183 39.6404 52.7534C40.8108 52.6885 41.8393 51.9557 42.2829 50.8707L54.4282 21.1613ZM39.0806 42.656L34.7625 34.7299L45.0997 27.9324L39.0806 42.656ZM22.5524 27.5401L38.3197 25.1229L30.3604 30.3567L22.5524 27.5401Z" fill="white"/>
</svg>
